<svg width="17" height="13" viewBox="0 0 17 13" fill="none" xmlns="http://www.w3.org/2000/svg">
<path d="M1.63789 6.7371L1.63788 6.7371C1.50185 6.60107 1.31736 6.52465 1.12498 6.52465C0.932607 6.52465 0.748112 6.60107 0.612083 6.7371C0.476054 6.87313 0.399634 7.05762 0.399634 7.25C0.399634 7.44237 0.476054 7.62687 0.612083 7.76289L4.98704 12.1379C4.98706 12.1379 4.98707 12.1379 4.98708 12.1379C5.05441 12.2053 5.13435 12.2587 5.22235 12.2952L5.26064 12.2028L5.22235 12.2952C5.31036 12.3317 5.40471 12.3505 5.49998 12.3505C5.59526 12.3505 5.6896 12.3317 5.77761 12.2952C5.86561 12.2587 5.94555 12.2053 6.01288 12.1379C6.01289 12.1379 6.01291 12.1379 6.01292 12.1379L16.0129 2.13789C16.1489 2.00187 16.2253 1.81737 16.2253 1.625C16.2253 1.43262 16.1489 1.24813 16.0129 1.1121C15.8769 0.976069 15.6924 0.899649 15.5 0.899649C15.3076 0.899649 15.1231 0.976069 14.9871 1.1121L14.9871 1.1121L5.49999 10.6L1.63789 6.7371Z" fill="#1B873F" stroke="#1B873F" stroke-width="0.2"/>
</svg>
